IKResults																																											
version=1																																											
nRows=16																																											
nColumns=44																																											
inDegrees=yes																																											
																																											
Units are S.I. units (second, meters, Newtons, ...)																																											
Angles are in degrees.																																											
																																											
endheader																																											
time	ground_spine_rot_x	ground_spine_rot_y	ground_spine_rot_z	ground_spine_tx	ground_spine_ty	ground_spine_tz	clav_prot	clav_elev	scapula_abduction	scapula_elevation	scapula_upward_rot	scapula_winging	plane_elv	shoulder_elv	axial_rot	elbow_flexion	pro_sup	clav_prot_l	clav_elev_l	pitch2	roll2	yaw2	aux7jnt_r3	aux7jnt_r1	aux7jnt_r2	aux6jnt_r3	aux6jnt_r1	aux6jnt_r2	aux5jnt_r3	aux5jnt_r1	aux5jnt_r2	aux4jnt_r3	aux4jnt_r1	aux4jnt_r2	aux3jnt_r3	aux3jnt_r1	aux3jnt_r2	pitch1	roll1	yaw1	aux1jnt_r3	aux1jnt_r1	aux1jnt_r2
1	1.38001236	1.20374553	-0.84558261	-0.34920364	1.0937965	-0.20819036	-28.68821784	0.2443606	-5.21739675	-14.39842787	9.99877703	22.14719607	-60.11475487	35.96062739	48.63962711	0	34.32	30.42326055	-1.1607173	0.01890272	-0.00588062	0.01114253	0.20252979	-0.04616002	0.12002298	0.23826976	-0.05289879	0.13981392	0.23826976	-0.07277785	0.13981392	0.17870232	-0.07277785	0.13981392	0.11913488	-0.06603927	0.06001149	-0.2047253	-0.01161424	0.02430934	-6.52181864	-0.33272337	0.15460361
1.01	1.31694902	1.1987851	-0.85940295	-0.34920792	1.09380813	-0.20780923	-28.68220203	0.07339102	-5.1292939	-14.5638468	9.99919961	22.17882566	-60.31027874	36.12964554	48.38089783	0	34.32	30.42326055	-1.1607173	0.0209179	-0.0017282	0.01023836	0.22412105	-0.01356554	0.11028362	0.26367117	-0.01554594	0.12846861	0.26367117	-0.02138801	0.12846861	0.19775338	-0.02138801	0.12846861	0.13183559	-0.01940767	0.05514181	-0.20718232	-0.01448768	0.02460898	-6.60009077	-0.41504134	0.15650924
1.02	1.30703587	1.17493425	-0.86383631	-0.34917402	1.09381036	-0.20773557	-28.65230877	0.02926327	-5.05316734	-14.60387856	9.99915815	22.16756438	-60.3872538	36.18742738	48.20952662	0	34.32	30.42326055	-1.1607173	0.02084145	-0.00218562	0.01008686	0.22330195	-0.01715602	0.10865167	0.26270753	-0.01966058	0.12656756	0.26270753	-0.02704891	0.12656756	0.19703065	-0.02704891	0.12656756	0.13135376	-0.02454443	0.05432584	-0.20718467	-0.0137246	0.02529764	-6.6001655	-0.39318076	0.16088907
1.03	1.3057518	1.2028212	-0.87643495	-0.34914175	1.09381125	-0.20779218	-28.7297335	0.02352485	-5.19667882	-14.6166349	9.99919778	22.22231301	-60.31766619	36.24359943	47.89597576	0	34.32	30.42326055	-1.1607173	0.02162416	-0.0007977	0.00901539	0.2316882	-0.00626152	0.09711021	0.27257369	-0.00717563	0.113123	0.27257369	-0.00987218	0.113123	0.20443027	-0.00987218	0.113123	0.13628684	-0.00895811	0.04855511	-0.20771234	-0.01583148	0.02505101	-6.61697529	-0.45353846	0.15932054
1.04	1.30920961	1.22219982	-0.8782959	-0.34906939	1.09378832	-0.20784708	-28.72810997	0.0197831	-5.19201813	-14.62009025	9.99911557	22.22200789	-60.25114954	36.32797685	47.83264963	0	34.32	30.42326055	-1.1607173	0.02089076	-0.002335	0.0084795	0.22383029	-0.01832863	0.09133787	0.26332911	-0.02100438	0.10639884	0.26332911	-0.02889771	0.10639884	0.19749683	-0.02889771	0.10639884	0.13166455	-0.02622204	0.04566893	-0.20690118	-0.01421755	0.02459153	-6.59113452	-0.40730284	0.15639827
1.05	1.29747521	1.23879869	-0.89656059	-0.34905585	1.09377174	-0.20780454	-28.83965634	-0.04203638	-5.3751678	-14.69041479	9.99904962	22.31214847	-60.12871186	36.40021249	47.27887698	0	34.32	30.42326055	-1.1607173	0.02196562	-0.00272534	0.00823835	0.23534664	-0.02139263	0.08874024	0.27687772	-0.02451568	0.10337288	0.27687772	-0.03372853	0.10337288	0.20765829	-0.03372853	0.10337288	0.13843886	-0.03060557	0.04437012	-0.20779937	-0.01308932	0.02438495	-6.61974762	-0.37498131	0.15508448
1.06	1.26152529	1.21690388	-0.91665078	-0.34905895	1.09376304	-0.20755813	-28.82208304	-0.18111947	-5.27885415	-14.82390758	9.9992174	22.33015561	-60.20363404	36.67617351	46.42181176	0	34.32	30.42326055	-1.1607173	0.02395705	-0.00217365	0.00854411	0.25668347	-0.0170621	0.09203378	0.30197981	-0.01955295	0.1072095	0.30197981	-0.02690084	0.1072095	0.22648486	-0.02690084	0.1072095	0.15098991	-0.02441006	0.04601689	-0.20927295	-0.01261186	0.02442101	-6.66669066	-0.36130325	0.15531379
1.07	1.27314932	1.25011708	-0.93661433	-0.34908261	1.09370395	-0.20770662	-28.99283826	-0.12061985	-5.62985317	-14.78096348	9.99911569	22.43422116	-59.69112352	36.60812464	44.62078012	0	34.32	30.42326055	-1.1607173	0.02353674	-0.00386092	0.00858237	0.25218018	-0.03030631	0.09244588	0.29668184	-0.03473065	0.10768955	0.29668184	-0.04778222	0.10768955	0.22251138	-0.04778222	0.10768955	0.14834092	-0.04335801	0.04622294	-0.20804025	-0.00996678	0.02311016	-6.6274214	-0.28552719	0.14697698
1.08	1.26450276	1.19729636	-0.92290488	-0.34894977	1.09370574	-0.20770046	-29.01274073	-0.09952225	-5.67799947	-14.76206387	9.99834772	22.44345737	-58.56519067	36.70847697	44.00849831	0	34.32	30.42326055	-1.1607173	0.01659459	0.00265275	0.00756699	0.17779975	0.02082277	0.08150865	0.20917567	0.02386263	0.09494885	0.20917567	0.03283007	0.09494885	0.15688175	0.03283007	0.09494885	0.10458783	0.0297903	0.04075432	-0.1997188	-0.01971847	0.02226317	-6.36232943	-0.56489265	0.14159028
1.09	1.1647068	1.239989	-0.96898214	-0.34902225	1.09367975	-0.20710147	-29.20830827	-0.29761368	-5.95881523	-14.97299236	9.99889464	22.62006093	-59.45191883	36.89386951	44.1101083	0	34.32	30.42326055	-1.1607173	0.02265706	0.00884211	0.00575804	0.24275495	0.06940627	0.06202333	0.28559336	0.0795387	0.07225054	0.28559336	0.10942888	0.07225054	0.21419502	0.10942888	0.07225054	0.14279668	0.09929674	0.03101166	-0.20492981	-0.02486015	0.02164631	-6.52833363	-0.71219082	0.13766715
1.1	1.14957395	1.11448909	-0.99018615	-0.34905573	1.09364736	-0.20695083	-28.96898337	-0.3914203	-5.46106061	-15.0419609	9.99904876	22.47759623	-59.17218344	37.36914162	43.92837917	0	34.32	30.42326055	-1.1607173	0.02554244	0.00112956	0.00744985	0.27366993	0.00886648	0.08024686	0.32196384	0.01016088	0.093479	0.32196384	0.01397928	0.093479	0.24147288	0.01397928	0.093479	0.16098192	0.01268492	0.04012343	-0.20777698	-0.01225312	0.02332989	-6.61903451	-0.35102601	0.14837443
1.11	1.10386809	1.08588196	-1.02458755	-0.34914015	1.09361225	-0.20670308	-29.10794822	-0.41442051	-5.7136965	-15.07742144	9.99930402	22.577725	-58.75424258	37.49412137	43.75923862	0	34.32	30.42326055	-1.1607173	0.02683528	0.00621971	0.00651158	0.28752178	0.0488217	0.0701402	0.33826009	0.05594905	0.08170582	0.33826009	0.07697438	0.08170582	0.25369507	0.07697438	0.08170582	0.16913004	0.06984724	0.0350701	-0.20762453	-0.01832675	0.0224708	-6.61417781	-0.52502261	0.1429108
1.12	1.07031056	1.03437326	-1.0524484	-0.3491984	1.09360858	-0.2065627	-29.10616967	-0.48410534	-5.67889337	-15.14483231	9.99855394	22.59241297	-58.30404973	37.80809183	43.54226273	0	34.32	30.42326055	-1.1607173	0.0277652	0.00807517	0.00649256	0.29748529	0.06338614	0.0699353	0.34998184	0.0726397	0.08146713	0.34998184	0.09993728	0.08146713	0.26248638	0.09993728	0.08146713	0.17499092	0.09068398	0.03496765	-0.2075894	-0.01903625	0.02182534	-6.61305865	-0.54534827	0.13880572
1.13	1.09592705	0.98748434	-1.06524992	-0.34919165	1.0936048	-0.20681883	-29.04693128	-0.38421496	-5.61124829	-15.04251122	9.99989806	22.5291182	-57.58721625	38.09115331	42.90131571	0	34.32	30.42326055	-1.1607173	0.02531198	0.00288413	0.00681913	0.2712007	0.02263902	0.07345297	0.31905887	0.02594403	0.08556485	0.31905887	0.03569364	0.08556485	0.23929415	0.03569364	0.08556485	0.15952943	0.03238873	0.03672649	-0.20381109	-0.01259252	0.02154543	-6.49269526	-0.36074911	0.13702555
1.14	1.00686297	0.91185284	-1.12781177	-0.34938406	1.09355716	-0.20632842	-29.20325084	-0.48291505	-5.86194926	-15.15338503	10.00058403	22.65771515	-56.82422774	38.3380708	42.40885106	0	34.32	30.42326055	-1.1607173	0.03076712	0.01048323	0.00623634	0.32964877	0.08228831	0.06717535	0.38782113	0.09430135	0.07825209	0.38782113	0.12973925	0.07825209	0.29086585	0.12973925	0.07825209	0.19391056	0.11772655	0.03358768	-0.20811414	-0.01917676	0.02112742	-6.62977523	-0.54937374	0.13436709
1.15	0.99415925	0.82508604	-1.17709273	-0.34956419	1.09351322	-0.20633621	-29.16118748	-0.45121072	-5.79778949	-15.11822779	9.99942426	22.62220266	-55.97923373	38.72761837	41.92145617	0	34.32	30.42326055	-1.1607173	0.03275471	0.00619888	0.00769385	0.35094446	0.04865818	0.08287508	0.41287482	0.05576166	0.09654059	0.41287482	0.07671656	0.09654059	0.30965612	0.07671656	0.09654059	0.20643741	0.06961329	0.04143754	-0.20862581	-0.01167023	0.02108899	-6.6460751	-0.33432752	0.13412267
